<svg id="mainpage_btn_plugin_alarm_clock" xmlns="http://www.w3.org/2000/svg" width="150" height="108" viewBox="0 0 150 108">
  <path id="Path_1155" data-name="Path 1155" d="M0,0H150V108H0Z" fill="#040000"/>
  <text id="_12:00:00_AM" data-name="12:00:00 AM" transform="translate(0 78)" fill="none" font-size="20" font-family="NotoSans-Regular, Noto Sans"><tspan x="17" y="21">12:00:00 AM</tspan></text>
  <g id="Group_5729" data-name="Group 5729" transform="translate(-1887.078 -2741.731)">
    <g id="Group_5727" data-name="Group 5727">
      <path id="Path_6552" data-name="Path 6552" d="M1961.7,2799.528a10.088,10.088,0,0,1,1.431,2.191,5.012,5.012,0,0,1-.209,2.012c-.667-.164-1.5-.14-1.964-.538a12.014,12.014,0,0,1-1.69-2.287,21.754,21.754,0,0,1-19.836,0,12.4,12.4,0,0,1-1.778,2.381c-.448.378-1.309.265-1.984.372a4.68,4.68,0,0,1-.145-1.9,12.132,12.132,0,0,1,1.5-2.3c-5.888-4.489-9.08-10.377-9-17.82a20.592,20.592,0,0,1,6.638-15.14,21.393,21.393,0,1,1,27.033,33.026Zm-12.36,1.254a18.8,18.8,0,1,0-18.824-18.811A18.861,18.861,0,0,0,1949.342,2800.782Z" fill="#fefefe"/>
      <path id="Path_6553" data-name="Path 6553" d="M1928.26,2770.359c-3.11-3.052-3.045-6.709.049-9.436a27.5,27.5,0,0,1,2.691-2.172c2.866-1.947,6.143-1.164,8.7,2.133Z" fill="#fefefe"/>
      <path id="Path_6554" data-name="Path 6554" d="M1970.434,2770.359l-11.355-9.39c2.208-3.59,6.116-4.318,9.257-1.718a18.328,18.328,0,0,1,3.507,3.427C1973.505,2765.077,1972.905,2767.919,1970.434,2770.359Z" fill="#fefefe"/>
      <path id="Path_6555" data-name="Path 6555" d="M1947.914,2757.737c-2.2-.146-1.252-1.609-1.282-2.8h5.278c.55,2.189.451,2.442-1.135,2.824l-.144,2.026h-2.539Z" fill="#fefefe"/>
      <path id="Path_6556" data-name="Path 6556" d="M1947.664,2781.27l-6.036-10.731c-.188-.334-.553-.7-.508-1.006a3.041,3.041,0,0,1,.691-1.771c.225-.2,1.257.159,1.594.549a15.078,15.078,0,0,1,1.518,2.534c1.8,3.21,3.564,6.438,5.394,9.629a1.787,1.787,0,0,1-.757,2.843c-2.692,1.6-5.33,3.283-7.987,4.939-.866.541-1.82,1.169-2.575.015-.768-1.173.191-1.759,1.076-2.3C1942.553,2784.449,1945.021,2782.909,1947.664,2781.27Z" fill="#fefefe"/>
    </g>
    <g id="Group_5728" data-name="Group 5728">
      <path id="Path_6557" data-name="Path 6557" d="M1974.9,2776.672l7.177-10.425-3.451-3.223,15.384-9.293.873.823-7.138,10.543,3.3,3.354-15.333,9.139Z" fill="#e60012"/>
      <path id="Path_6558" data-name="Path 6558" d="M1974.733,2789l9.324-5.308-1.233-3.833,14.934-1.254.44,1.03-9.328,5.391,1.488,3.694-15.174,1.356Z" fill="#e60012"/>
    </g>
  </g>
</svg>
