<svg id="mainpage_btn_plugin_digital_clock" xmlns="http://www.w3.org/2000/svg" width="150" height="108" viewBox="0 0 150 108">
  <path id="Path_1155" data-name="Path 1155" d="M0,0H150V108H0Z" fill="#040000"/>
  <g id="Group_5842" data-name="Group 5842" transform="translate(-2591.085 -2291.5)">
    <path id="Path_6563" data-name="Path 6563" d="M2626.126,2327.78c6.013-3.726,15.225-3.651,20.3.068C2641.526,2331.186,2631.243,2331.2,2626.126,2327.78Z" fill="#fff"/>
    <path id="Path_6564" data-name="Path 6564" d="M2646.983,2348.281c-5.4,0-10.7.114-15.988-.1-1.045-.042-2.04-1.336-3.057-2.052l-.053-.868c1.434-.631,2.89-1.845,4.3-1.79C2637.437,2343.677,2643.6,2341.262,2646.983,2348.281Z" fill="#fff"/>
    <path id="Path_6565" data-name="Path 6565" d="M2621.136,2307.857v19.262a31.087,31.087,0,0,1-3.664-2.1,3.121,3.121,0,0,1-1.114-1.986c-.155-1.753-.046-3.529-.043-5.3C2616.326,2311.959,2616.326,2311.959,2621.136,2307.857Z" fill="#fff"/>
    <path id="Path_6566" data-name="Path 6566" d="M2621.062,2328.854v18.956c-3.169-2.334-5.657-4.744-4.81-9.005a18.367,18.367,0,0,0,.043-3.468C2616.31,2330.6,2616.31,2330.6,2621.062,2328.854Z" fill="#fff"/>
    <path id="Path_6567" data-name="Path 6567" d="M2625.162,2307.58c5.593,0,11.04-.09,16.479.08,1.029.032,2.026,1.1,3.114,1.731-1.175,2.068-2.473,3.148-4.728,2.914a21.843,21.843,0,0,0-5.3.005C2630.547,2312.911,2627.44,2311.435,2625.162,2307.58Z" fill="#fff"/>
    <path id="Path_6568" data-name="Path 6568" d="M2627.545,2344.891a4.978,4.978,0,0,1-3.02-5.3c.168-3.513.045-7.04.045-10.944,1.651.782,3.052,1.352,4.338,2.115a2.047,2.047,0,0,1,.6,1.519,80.454,80.454,0,0,1-.058,9C2629.337,2342.527,2628.219,2343.677,2627.545,2344.891Z" fill="#fff"/>
    <path id="Path_6569" data-name="Path 6569" d="M2716.041,2328.811c0,4.428.145,8.58-.093,12.71-.066,1.164-1.252,2.265-1.949,3.437-2.253-1.259-3.193-2.734-2.918-5.027a41.141,41.141,0,0,0,.036-4.842C2711.118,2330.562,2711.118,2330.562,2716.041,2328.811Z" fill="#fff"/>
    <path id="Path_6570" data-name="Path 6570" d="M2645.351,2310.9c2.386,1.266,2.864,3.154,2.749,5.513-.169,3.447-.044,6.908-.044,10.773a37.786,37.786,0,0,1-3.97-2.333,2.781,2.781,0,0,1-.862-1.908c-.105-2.543.077-5.1-.107-7.637A4.443,4.443,0,0,1,2645.351,2310.9Z" fill="#fff"/>
    <path id="Path_6571" data-name="Path 6571" d="M2666.739,2345.823a4.984,4.984,0,0,1,5.172-2.382,37.171,37.171,0,0,0,6.223-.006,4.941,4.941,0,0,1,5.053,2.369,4.848,4.848,0,0,1-5.17,2.528,28.56,28.56,0,0,0-5.99,0A5.131,5.131,0,0,1,2666.739,2345.823Z" fill="#fff"/>
    <path id="Path_6572" data-name="Path 6572" d="M2712.447,2345.819a4.69,4.69,0,0,1-5.023,2.508,31.513,31.513,0,0,0-6.225.01,3.15,3.15,0,1,1-.14-4.9,42.317,42.317,0,0,0,6.459,0A4.732,4.732,0,0,1,2712.447,2345.819Z" fill="#fff"/>
    <path id="Path_6573" data-name="Path 6573" d="M2666.725,2309.988a4.6,4.6,0,0,1,4.771-2.452,39.344,39.344,0,0,0,6.673,0,4.746,4.746,0,0,1,4.986,2.452,4.572,4.572,0,0,1-4.756,2.319,45.187,45.187,0,0,0-6.675-.006C2669.639,2312.443,2667.947,2311.984,2666.725,2309.988Z" fill="#fff"/>
    <path id="Path_6574" data-name="Path 6574" d="M2712.424,2310a4.6,4.6,0,0,1-4.834,2.3,43.078,43.078,0,0,0-6.444,0c-2.17.162-3.94-.3-5.142-2.261a4.719,4.719,0,0,1,4.865-2.512,39.2,39.2,0,0,0,6.9.006A4.364,4.364,0,0,1,2712.424,2310Z" fill="#fff"/>
    <path id="Path_6575" data-name="Path 6575" d="M2695.035,2344.724a4.7,4.7,0,0,1-2.5-4.817c.19-3.61.052-7.237.052-10.876,4.221.856,4.8,1.522,4.8,5.458,0,1.774-.117,3.557.031,5.319A4.611,4.611,0,0,1,2695.035,2344.724Z" fill="#fff"/>
    <path id="Path_6576" data-name="Path 6576" d="M2692.59,2326.836c0-4.208-.156-8.359.1-12.485.075-1.225,1.3-2.379,1.987-3.557,2.154,1.349,2.975,2.872,2.717,5.032a14.51,14.51,0,0,0,.006,4.14C2698.05,2323.736,2696.427,2325.883,2692.59,2326.836Z" fill="#fff"/>
    <path id="Path_6577" data-name="Path 6577" d="M2684.193,2311.067a4.518,4.518,0,0,1,2.42,4.588c-.158,3.689-.044,7.389-.044,11.459a35.211,35.211,0,0,1-3.888-2.25,2.753,2.753,0,0,1-.8-1.905c-.093-2.385.1-4.785-.079-7.16A4.575,4.575,0,0,1,2684.193,2311.067Z" fill="#fff"/>
    <path id="Path_6578" data-name="Path 6578" d="M2663.336,2328.7a24.574,24.574,0,0,1,3.557,1.731,2.838,2.838,0,0,1,1.107,1.915,70.105,70.105,0,0,1-.035,8.969c-.111,1.237-1.174,2.388-1.811,3.592-2.235-1.235-2.959-2.633-2.864-4.733C2663.455,2336.5,2663.336,2332.818,2663.336,2328.7Z" fill="#fff"/>
    <path id="Path_6579" data-name="Path 6579" d="M2684.635,2344.883c-2.2-1.208-3.006-2.614-2.809-4.719.17-1.829.036-3.686.036-5.53,0-4.273.022-4.3,4.773-5.7,0,4.353.121,8.632-.089,12.9C2686.5,2342.845,2685.341,2343.806,2684.635,2344.883Z" fill="#fff"/>
    <path id="Path_6580" data-name="Path 6580" d="M2713.573,2311.035a4.817,4.817,0,0,1,2.363,4.793c-.178,3.657-.049,7.33-.049,11.306a45.446,45.446,0,0,1-4-2.324,2.4,2.4,0,0,1-.743-1.687c-.081-2.382.112-4.78-.072-7.15A4.668,4.668,0,0,1,2713.573,2311.035Z" fill="#fff"/>
    <path id="Path_6581" data-name="Path 6581" d="M2663.337,2327.039c0-4.53-.12-8.814.088-13.081.05-1.022,1.192-1.99,1.892-3.076,1.954,1.127,2.96,2.368,2.762,4.53a29.293,29.293,0,0,0,.007,6c.271,2.333-.53,3.784-2.693,4.589A22.451,22.451,0,0,0,2663.337,2327.039Z" fill="#fff"/>
    <path id="Path_6582" data-name="Path 6582" d="M2652.685,2339.3l-.321-4.714h4.811v4.714Z" fill="#fff"/>
    <path id="Path_6583" data-name="Path 6583" d="M2656.787,2321.307h-4.408v-4.739h4.408Z" fill="#fff"/>
  </g>
</svg>
