<svg xmlns="http://www.w3.org/2000/svg" width="308" height="224" viewBox="0 0 308 224">
  <g id="mainpage_widget_plugin_alarm_clock_red_bg" transform="translate(29 -51)">
    <path id="Path_6433" data-name="Path 6433" d="M0,0H308V224H0Z" transform="translate(-29 51)" fill="#040000"/>
    <g id="Group_5630" data-name="Group 5630" transform="translate(69 78.742)">
      <g id="Group_5732" data-name="Group 5732" transform="translate(14.935 11)">
        <g id="Group_5731" data-name="Group 5731" transform="translate(-4488.072 -3216.204)">
          <rect id="Rectangle_5419" data-name="Rectangle 5419" width="60" height="60" transform="translate(4440.137 3307.463)" fill="none"/>
          <g id="Group_5853" data-name="Group 5853" transform="translate(0.269)">
            <g id="Group_5730" data-name="Group 5730">
              <path id="Path_6559" data-name="Path 6559" d="M4466.6,3322.9c.007-.071.037-.341.066-.609a3.042,3.042,0,0,1,3.115-2.965c.062,0,.124.005.185.01a3.156,3.156,0,0,1,3.288,3.017l0,.09a1.008,1.008,0,0,0,.876,1.111,9.332,9.332,0,0,1,6.667,8.877c.056,2.836.089,5.673.132,8.51a9.025,9.025,0,0,0,3.62,7.265c.548.433.957.875.721,1.612-.25.781-.906.795-1.568.795h-27.819c-.664,0-1.326-.021-1.568-.8-.226-.725.272-1.085.764-1.5a9.55,9.55,0,0,0,3.555-7.149c.15-3.169.19-6.343.375-9.508a9.011,9.011,0,0,1,3.905-7.22A19.614,19.614,0,0,1,4466.6,3322.9Z" fill="#e60012"/>
              <path id="Path_6560" data-name="Path 6560" d="M4466.4,3352.279h7.73c-.057,1.951-1.461,3.219-3.675,3.3C4468.025,3355.671,4466.641,3354.577,4466.4,3352.279Z" fill="#e60012"/>
            </g>
            <g id="Group_5852" data-name="Group 5852">
              <path id="Path_6584" data-name="Path 6584" d="M4454.416,3316.82l1.353,1.459a17.491,17.491,0,0,0-5.782,12.855h-1.949C4446.994,3327.9,4450.939,3319.055,4454.416,3316.82Z" fill="#e60012"/>
              <path id="Path_6585" data-name="Path 6585" d="M4483.885,3318.282l1.4-1.521a19.351,19.351,0,0,1,6.448,14.334h-2.068A17.519,17.519,0,0,0,4483.885,3318.282Z" fill="#e60012"/>
              <path id="Path_6586" data-name="Path 6586" d="M4480.544,3321.877l1.407-1.507a14.515,14.515,0,0,1,4.837,10.725h-2.073a12.515,12.515,0,0,0-4.171-9.218Z" fill="#e60012"/>
              <path id="Path_6587" data-name="Path 6587" d="M4457.737,3320.405l1.365,1.47a12.515,12.515,0,0,0-4.161,9.228h-1.984C4452.212,3328.6,4454.957,3322.422,4457.737,3320.405Z" fill="#e60012"/>
            </g>
          </g>
        </g>
      </g>
    </g>
  </g>
</svg>
