<svg xmlns="http://www.w3.org/2000/svg" width="308" height="224" viewBox="0 0 308 224">
  <g id="mainpage_widget_plugin_alarm_clock_gray_bg" transform="translate(29 -51)">
    <path id="Path_6433" data-name="Path 6433" d="M0,0H308V224H0Z" transform="translate(-29 51)" fill="#040000"/>
    <g id="Group_5630" data-name="Group 5630" transform="translate(69 78.742)">
      <g id="Group_5732" data-name="Group 5732" transform="translate(14.935 11)">
        <g id="Group_5731" data-name="Group 5731" transform="translate(-1877.936 -2632.059)">
          <g id="Group_5730" data-name="Group 5730" transform="translate(1843.461 2735.19)">
            <path id="Path_6559" data-name="Path 6559" d="M1846.484,2730.881c.007-.071.037-.341.066-.609a3.041,3.041,0,0,1,3.3-2.955,3.155,3.155,0,0,1,3.29,3.107,1.01,1.01,0,0,0,.877,1.111,9.332,9.332,0,0,1,6.667,8.877c.055,2.836.089,5.673.132,8.51a9.025,9.025,0,0,0,3.62,7.265c.548.433.957.875.721,1.612-.25.781-.906.795-1.568.795q-13.91,0-27.819,0c-.664,0-1.326-.021-1.568-.8-.226-.725.272-1.085.764-1.5a9.552,9.552,0,0,0,3.555-7.149c.149-3.169.19-6.343.374-9.508a9.014,9.014,0,0,1,3.905-7.22A19.6,19.6,0,0,1,1846.484,2730.881Z" transform="translate(-1834.141 -2727.316)" fill="#8c8c8c"/>
            <path id="Path_6560" data-name="Path 6560" d="M1839.5,2741.856h7.73c-.057,1.951-1.461,3.219-3.675,3.3C1841.124,2745.248,1839.74,2744.154,1839.5,2741.856Z" transform="translate(-1827.354 -2708.914)" fill="#8c8c8c"/>
          </g>
          <rect id="Rectangle_5419" data-name="Rectangle 5419" width="60" height="60" transform="translate(1829 2723.316)" fill="none"/>
        </g>
      </g>
    </g>
  </g>
</svg>
