<svg xmlns="http://www.w3.org/2000/svg" width="150" height="108" viewBox="0 0 150 108">
  <g id="mainpage_btn_tool_random_number_bg" transform="translate(-16 -70)">
    <path id="Path_7086" data-name="Path 7086" d="M0,0H150V108H0Z" transform="translate(16 70)"/>
    <g id="Random" transform="translate(-7739.701 -3425.361)" style="mix-blend-mode: normal;isolation: isolate">
      <g id="Group_6668" data-name="Group 6668" style="mix-blend-mode: normal;isolation: isolate">
        <path id="Path_7087" data-name="Path 7087" d="M7791.612,3511.582a6.562,6.562,0,0,1,4.05,1.021,3.682,3.682,0,0,1,1.311,3.1,3.891,3.891,0,0,1-.4,1.851,3.611,3.611,0,0,1-1.05,1.229,5.392,5.392,0,0,1-1.35.74l4,6.34h-2.48l-3.44-5.78h-2.48v5.78h-2.16v-14.28Zm-.139,1.84h-1.7v4.86h1.8a3.771,3.771,0,0,0,2.42-.63,2.289,2.289,0,0,0,.76-1.87,2.037,2.037,0,0,0-.8-1.82A4.517,4.517,0,0,0,7791.473,3513.422Z" fill="#fff"/>
        <path id="Path_7088" data-name="Path 7088" d="M7809.172,3525.862l-1.52-4.12h-5.519l-1.52,4.12h-2.24l5.42-14.34h2.24l5.4,14.34Zm-2.119-6-1.44-4.019c-.054-.148-.127-.367-.22-.66s-.188-.6-.28-.92-.168-.58-.22-.781q-.162.621-.36,1.321c-.135.467-.24.813-.32,1.04l-1.441,4.019Z" fill="#fff"/>
        <path id="Path_7089" data-name="Path 7089" d="M7825.072,3525.862h-2.619l-7.221-11.54h-.08c.028.533.057,1.144.09,1.83s.057,1.39.071,2.111v7.6h-1.959v-14.28h2.6l7.2,11.481h.061c-.014-.281-.029-.634-.051-1.061s-.037-.883-.049-1.37-.027-.943-.041-1.369v-7.681h2Z" fill="#fff"/>
        <path id="Path_7090" data-name="Path 7090" d="M7840.432,3518.582a7.032,7.032,0,0,1-1.991,5.45,7.92,7.92,0,0,1-5.568,1.83h-4v-14.28h4.42a8.37,8.37,0,0,1,3.779.8,5.74,5.74,0,0,1,2.481,2.36A7.726,7.726,0,0,1,7840.432,3518.582Zm-2.26.061a5.352,5.352,0,0,0-1.3-3.971,5.109,5.109,0,0,0-3.721-1.27h-2.121v10.64h1.74Q7838.174,3524.042,7838.172,3518.643Z" fill="#fff"/>
        <path id="Path_7091" data-name="Path 7091" d="M7856.131,3518.7a9.375,9.375,0,0,1-.74,3.87,5.694,5.694,0,0,1-2.219,2.571,6.858,6.858,0,0,1-3.68.92,6.97,6.97,0,0,1-3.74-.92,5.565,5.565,0,0,1-2.2-2.58,9.708,9.708,0,0,1-.719-3.88,9.584,9.584,0,0,1,.719-3.851,5.51,5.51,0,0,1,2.2-2.56,7.08,7.08,0,0,1,3.76-.91,6.864,6.864,0,0,1,3.67.91,5.646,5.646,0,0,1,2.209,2.56A9.388,9.388,0,0,1,7856.131,3518.7Zm-11.02,0a6.815,6.815,0,0,0,1.061,4.04,4.461,4.461,0,0,0,6.639,0,6.92,6.92,0,0,0,1.041-4.04,6.821,6.821,0,0,0-1.041-4.019,3.77,3.77,0,0,0-3.3-1.46,3.846,3.846,0,0,0-3.34,1.46A6.718,6.718,0,0,0,7845.111,3518.7Z" fill="#fff"/>
        <path id="Path_7092" data-name="Path 7092" d="M7865.451,3525.862l-4.32-12.139h-.08c.027.279.051.643.07,1.09s.037.933.051,1.459.019,1.038.019,1.531v8.059h-1.959v-14.28h3.081l4.1,11.46h.08l4.219-11.46h3.08v14.28h-2.1v-8.179q0-.7.03-1.441t.06-1.4c.02-.441.037-.807.051-1.1h-.08l-4.439,12.12Z" fill="#fff"/>
      </g>
    </g>
  </g>
</svg>
