<svg id="mainpage_btn_tool_counter_bg" xmlns="http://www.w3.org/2000/svg" width="150" height="108" viewBox="0 0 150 108">
  <rect id="Rectangle_2042" data-name="Rectangle 2042" width="150" height="108"/>
  <g id="Group_5634" data-name="Group 5634" transform="translate(-7611.422 -3359.879)">
    <g id="Group_5630" data-name="Group 5630">
      <g id="LINE_IN" data-name="LINE IN">
        <g id="Counter" style="mix-blend-mode: normal;isolation: isolate">
          <g id="Group_6667" data-name="Group 6667" style="mix-blend-mode: normal;isolation: isolate">
            <path id="Path_7079" data-name="Path 7079" d="M7647.273,3377.76a4.081,4.081,0,0,0-3.33,1.469,6.17,6.17,0,0,0-1.211,4.031,6.408,6.408,0,0,0,1.122,4,4.012,4.012,0,0,0,3.4,1.46,9.032,9.032,0,0,0,1.77-.17,16.012,16.012,0,0,0,1.73-.45v1.86a9.147,9.147,0,0,1-1.72.47,12.264,12.264,0,0,1-2.04.15,6.757,6.757,0,0,1-3.65-.91,5.5,5.5,0,0,1-2.159-2.56,9.7,9.7,0,0,1-.711-3.87,8.7,8.7,0,0,1,.791-3.81,6.042,6.042,0,0,1,2.308-2.59,6.944,6.944,0,0,1,3.721-.941,9.655,9.655,0,0,1,2.109.231,8.486,8.486,0,0,1,1.891.65l-.8,1.8a13.075,13.075,0,0,0-1.5-.57A5.759,5.759,0,0,0,7647.273,3377.76Z" fill="#fff"/>
            <path id="Path_7080" data-name="Path 7080" d="M7666.033,3383.22a9.375,9.375,0,0,1-.74,3.87,5.683,5.683,0,0,1-2.22,2.57,6.856,6.856,0,0,1-3.68.92,6.979,6.979,0,0,1-3.74-.92,5.562,5.562,0,0,1-2.2-2.58,9.685,9.685,0,0,1-.72-3.88,9.557,9.557,0,0,1,.72-3.85,5.513,5.513,0,0,1,2.2-2.56,7.084,7.084,0,0,1,3.76-.91,6.859,6.859,0,0,1,3.67.91,5.637,5.637,0,0,1,2.21,2.56A9.373,9.373,0,0,1,7666.033,3383.22Zm-11.019,0a6.818,6.818,0,0,0,1.059,4.04,4.463,4.463,0,0,0,6.64,0,6.923,6.923,0,0,0,1.041-4.04,6.827,6.827,0,0,0-1.041-4.02,3.772,3.772,0,0,0-3.3-1.46,3.848,3.848,0,0,0-3.34,1.46A6.724,6.724,0,0,0,7655.014,3383.22Z" fill="#fff"/>
            <path id="Path_7081" data-name="Path 7081" d="M7680.213,3376.1v9.24a5.776,5.776,0,0,1-.609,2.67,4.438,4.438,0,0,1-1.872,1.88,6.559,6.559,0,0,1-3.179.69,5.5,5.5,0,0,1-4.129-1.45,5.251,5.251,0,0,1-1.41-3.83v-9.2h2.16v9.1q0,3.54,3.478,3.54a3.238,3.238,0,0,0,2.612-.96,3.908,3.908,0,0,0,.808-2.6v-9.08Z" fill="#fff"/>
            <path id="Path_7082" data-name="Path 7082" d="M7695.613,3390.38h-2.621l-7.219-11.54h-.08q.04.8.09,1.83t.071,2.11v7.6h-1.961V3376.1h2.6l7.2,11.48h.059c-.014-.28-.029-.634-.049-1.06s-.037-.883-.051-1.371-.027-.942-.039-1.369v-7.68h2Z" fill="#fff"/>
            <path id="Path_7083" data-name="Path 7083" d="M7704.213,3390.38h-2.16v-12.42h-4.282v-1.86h10.721v1.86h-4.279Z" fill="#fff"/>
            <path id="Path_7084" data-name="Path 7084" d="M7718.713,3390.38h-8.041V3376.1h8.041v1.839h-5.881v4.081h5.52v1.82h-5.52v4.68h5.881Z" fill="#fff"/>
            <path id="Path_7085" data-name="Path 7085" d="M7725.813,3376.1a6.555,6.555,0,0,1,4.048,1.02,3.685,3.685,0,0,1,1.311,3.1,3.878,3.878,0,0,1-.4,1.85,3.645,3.645,0,0,1-1.05,1.23,5.454,5.454,0,0,1-1.35.74l4,6.34h-2.478l-3.442-5.78h-2.48v5.78h-2.158V3376.1Zm-.141,1.839h-1.7v4.861h1.8a3.764,3.764,0,0,0,2.42-.63,2.291,2.291,0,0,0,.76-1.87,2.034,2.034,0,0,0-.8-1.821A4.512,4.512,0,0,0,7725.672,3377.939Z" fill="#fff"/>
          </g>
        </g>
      </g>
    </g>
  </g>
</svg>
